<mxfile host="app.diagrams.net" modified="2024-05-03T18:25:35.451Z" agent="Mozilla/5.0 (Windows NT 10.0; Win64; x64) AppleWebKit/537.36 (KHTML, like Gecko) Chrome/124.0.0.0 Safari/537.36" etag="5i5tQ7nDuAapuKlI7nAZ" version="24.3.1" type="device">
  <diagram name="Page-1" id="E5x1kjM3bsFxlzMXgVBV">
    <mxGraphModel dx="880" dy="472" grid="1" gridSize="10" guides="1" tooltips="1" connect="1" arrows="1" fold="1" page="1" pageScale="1" pageWidth="850" pageHeight="1100" math="0" shadow="0">
      <root>
        <mxCell id="0" />
        <mxCell id="1" parent="0" />
        <mxCell id="dYTfIen5yfrNbRDWNRZS-1" value="CONTROLLER&lt;div&gt;(express.js)&lt;/div&gt;" style="rounded=1;whiteSpace=wrap;html=1;" vertex="1" parent="1">
          <mxGeometry x="290" y="200" width="240" height="90" as="geometry" />
        </mxCell>
        <mxCell id="dYTfIen5yfrNbRDWNRZS-2" value="Database&lt;div&gt;(MongoDB, SQL)&lt;/div&gt;" style="shape=cylinder3;whiteSpace=wrap;html=1;boundedLbl=1;backgroundOutline=1;size=15;" vertex="1" parent="1">
          <mxGeometry x="560" y="360" width="100" height="100" as="geometry" />
        </mxCell>
        <mxCell id="dYTfIen5yfrNbRDWNRZS-3" value="MODEL&lt;div&gt;(Mongoose)&lt;/div&gt;" style="ellipse;whiteSpace=wrap;html=1;" vertex="1" parent="1">
          <mxGeometry x="370" y="360" width="120" height="80" as="geometry" />
        </mxCell>
        <mxCell id="dYTfIen5yfrNbRDWNRZS-15" style="edgeStyle=orthogonalEdgeStyle;rounded=0;orthogonalLoop=1;jettySize=auto;html=1;exitX=1;exitY=0.5;exitDx=0;exitDy=0;" edge="1" parent="1" source="dYTfIen5yfrNbRDWNRZS-4" target="dYTfIen5yfrNbRDWNRZS-1">
          <mxGeometry relative="1" as="geometry" />
        </mxCell>
        <mxCell id="dYTfIen5yfrNbRDWNRZS-4" value="VIEW&lt;div&gt;(ejs, pug)&lt;/div&gt;" style="ellipse;whiteSpace=wrap;html=1;" vertex="1" parent="1">
          <mxGeometry x="90" y="205" width="120" height="80" as="geometry" />
        </mxCell>
        <mxCell id="dYTfIen5yfrNbRDWNRZS-5" value="User" style="shape=umlActor;verticalLabelPosition=bottom;verticalAlign=top;html=1;outlineConnect=0;" vertex="1" parent="1">
          <mxGeometry x="415" y="50" width="30" height="60" as="geometry" />
        </mxCell>
        <mxCell id="dYTfIen5yfrNbRDWNRZS-6" value="ROUTER" style="rounded=0;whiteSpace=wrap;html=1;" vertex="1" parent="1">
          <mxGeometry x="530" y="205" width="120" height="60" as="geometry" />
        </mxCell>
        <mxCell id="dYTfIen5yfrNbRDWNRZS-8" value="" style="endArrow=classic;startArrow=classic;html=1;rounded=0;" edge="1" parent="1" source="dYTfIen5yfrNbRDWNRZS-1" target="dYTfIen5yfrNbRDWNRZS-3">
          <mxGeometry width="50" height="50" relative="1" as="geometry">
            <mxPoint x="420" y="300" as="sourcePoint" />
            <mxPoint x="420" y="350" as="targetPoint" />
          </mxGeometry>
        </mxCell>
        <mxCell id="dYTfIen5yfrNbRDWNRZS-10" value="" style="endArrow=classic;startArrow=classic;html=1;rounded=0;" edge="1" parent="1" source="dYTfIen5yfrNbRDWNRZS-3">
          <mxGeometry width="50" height="50" relative="1" as="geometry">
            <mxPoint x="490" y="450" as="sourcePoint" />
            <mxPoint x="560.7106781186548" y="400" as="targetPoint" />
          </mxGeometry>
        </mxCell>
        <mxCell id="dYTfIen5yfrNbRDWNRZS-13" value="" style="endArrow=classic;html=1;rounded=0;entryX=0.133;entryY=0.033;entryDx=0;entryDy=0;entryPerimeter=0;exitX=1;exitY=1;exitDx=0;exitDy=0;exitPerimeter=0;" edge="1" parent="1" source="dYTfIen5yfrNbRDWNRZS-5" target="dYTfIen5yfrNbRDWNRZS-6">
          <mxGeometry width="50" height="50" relative="1" as="geometry">
            <mxPoint x="420" y="160" as="sourcePoint" />
            <mxPoint x="470" y="110" as="targetPoint" />
          </mxGeometry>
        </mxCell>
        <mxCell id="dYTfIen5yfrNbRDWNRZS-16" value="" style="endArrow=classic;html=1;rounded=0;entryX=0;entryY=1;entryDx=0;entryDy=0;entryPerimeter=0;" edge="1" parent="1" target="dYTfIen5yfrNbRDWNRZS-5">
          <mxGeometry width="50" height="50" relative="1" as="geometry">
            <mxPoint x="380" y="200" as="sourcePoint" />
            <mxPoint x="430" y="150" as="targetPoint" />
          </mxGeometry>
        </mxCell>
      </root>
    </mxGraphModel>
  </diagram>
</mxfile>
